<svg width="567" height="198" viewBox="0 0 567 198" fill="none" xmlns="http://www.w3.org/2000/svg">
<path d="M288.618 97L301.618 96V105H291.618V109H301.618V117H288.618V126C284.618 128 284.618 128 281.618 128C281.617 127.387 281.616 126.774 281.614 126.143C281.595 119.751 281.54 113.359 281.466 106.968C281.443 104.584 281.428 102.199 281.423 99.8154C281.414 96.3843 281.372 92.9542 281.325 89.5234C281.329 88.4607 281.333 87.3977 281.337 86.3027C281.226 79.7914 281.226 79.7912 278.074 74.2803C277.264 73.528 276.453 72.7751 275.618 72C279.618 70 279.618 70 289.618 70L288.618 97ZM314.618 0C321.892 1.77407 326.531 5.98653 330.493 12.1875C334.236 18.4712 334.616 25.1207 333.157 32.2539C330.707 39.6193 325.459 45.4306 318.618 49C316.243 48.75 316.243 48.75 314.618 48C314.618 51.9789 316.14 55.0034 317.743 58.5625L318.603 60.6387C320.241 64.268 321.176 65.8003 324.86 67.4648L327.618 68V71L325.317 71.4805C319.359 72.619 319.359 72.619 314.868 76.25L313.618 79C312.473 80.3088 311.281 81.5777 310.056 82.8125C309.443 83.43 309.248 83.6264 308.896 83.9814C308.219 84.8714 307.926 85.0798 306.618 86H304.618L303.618 89C303.476 88.9527 303.334 88.9048 303.192 88.8574C302.187 90.4465 301.085 91.5975 299.618 93C295.742 86.2949 295.742 86.2948 295.368 82.375C297.103 79.078 299.66 77.5825 302.677 75.4727C305.912 73.0187 307.174 70.332 308.431 66.5625C308.669 63.3113 307.719 61.0447 306.618 58V54H304.618L304.392 56.2656C303.415 59.7179 302.108 60.6546 299.243 62.75L296.845 64.5469C291.13 68.2764 284.175 67.6228 277.618 67C271.805 65.1782 266.691 62.4475 263.618 57V53L262.618 55C262.391 54.5448 262.163 54.0897 261.932 53.6279C260.626 59.0397 259.712 64.4307 260.618 70C262.28 72.6492 263.361 74.0115 265.618 76L267.696 77.8828C269.648 79.6168 271.627 81.3115 273.618 83L274.618 84C274.482 89.5676 273.669 94.8036 271.618 100H269.618L269.138 98.2422C266.592 89.7198 262.027 85.1521 255.388 79.5156C253.618 78 253.618 77.9999 251.618 76V73L249.685 72.668L247.181 72.1875L244.685 71.7305L242.618 71L241.618 68L244.306 66.6875C249.086 63.5879 250.629 58.1048 252.618 53H254.618L252.618 52C252.825 50.4712 253.052 49.2475 253.45 48.167C253.175 48.442 252.899 48.7196 252.618 49C249.454 49.4649 248.023 49.2567 245.302 47.5312C239.351 42.1497 234.275 36.4016 233.415 28.0195C233.204 18.0966 236.771 11.1561 243.618 4C246.99 1.36087 249.305 -0.437647 253.618 1C251.995 2.70883 250.325 4.37448 248.618 6H246.618C243.594 12.8047 243.408 20.7537 245.993 27.6875C247.411 30.0942 247.411 30.0943 249.618 31C255.5 31.4659 255.5 31.4659 260.618 29C260.136 25.989 259.211 24.3461 257.556 21.6875C255.395 18.0831 255.275 15.2084 255.618 11L257.618 10L258.056 13.125C259.354 17.6564 262.273 19.4792 266.173 21.8555C269.705 23.5089 272.743 23.677 276.618 24C279.493 25.1875 279.493 25.1875 281.618 27C282.931 30.1875 282.931 30.1875 283.618 33L285.618 30C289.514 24.9356 293.702 23.7975 299.731 21.9805C303.235 20.7906 305.662 19.1782 308.618 17H310.618V10H312.618C313.171 16.1889 312.389 19.1895 308.614 24.1406C307.408 25.9688 307.408 25.9689 307.86 28.1523C308.491 30.1253 308.491 30.1253 310.306 31.3125C313.477 32.2555 315.451 31.9236 318.618 31C321.428 28.7216 322.467 27.453 323.618 24C324.176 15.9063 322.787 9.21779 317.431 2.9375C316.506 1.94582 315.574 0.961634 314.618 0ZM266.406 44C266.91 48.4094 268.368 50.7884 271.406 54C274.09 55.7081 275.168 56 278.406 56C277.035 52.8158 275.545 51.0289 272.844 48.875C270.196 46.791 270.196 46.791 268.406 44H266.406ZM298.618 44C296.828 46.791 296.828 46.791 294.181 48.875C291.48 51.0289 289.99 52.8158 288.618 56C291.857 56 292.934 55.7081 295.618 54C298.656 50.7884 300.114 48.4094 300.618 44H298.618ZM273.773 49.1689C274.209 49.6468 274.711 50.1434 275.633 51.0361C275.619 50.7575 275.618 50.4236 275.618 50L273.806 49.1875C273.795 49.1814 273.784 49.175 273.773 49.1689Z" fill="#1D0D10"/>
<path d="M6.89062 177.117L17.9297 155.133L12.8906 149.391H40.3594L36.1172 155.344L46.0078 177.07L52.1719 183H27.5625L32.6719 177.117L31.6641 174.656H16.1953L15.0938 177.117L21.8203 183H0L6.89062 177.117ZM29.6953 169.758L24.3281 156.539L18.3984 169.758H29.6953ZM55.4297 173.438C56.6172 174.219 57.8906 174.945 59.25 175.617C60.625 176.273 62.0469 176.852 63.5156 177.352C64.9844 177.836 66.4844 178.219 68.0156 178.5C69.5469 178.781 71.0781 178.922 72.6094 178.922C73.1875 178.922 73.7578 178.883 74.3203 178.805C74.8984 178.727 75.4062 178.609 75.8438 178.453C76.2969 178.281 76.6562 178.062 76.9219 177.797C77.2031 177.516 77.3438 177.18 77.3438 176.789C77.3438 176.461 77.2344 176.172 77.0156 175.922C76.8125 175.656 76.4141 175.414 75.8203 175.195C75.2266 174.977 74.3906 174.781 73.3125 174.609C72.25 174.438 70.8594 174.281 69.1406 174.141C67.9844 174.047 66.8203 173.93 65.6484 173.789C64.4766 173.633 63.3438 173.422 62.25 173.156C61.1719 172.891 60.1562 172.547 59.2031 172.125C58.2656 171.703 57.4453 171.188 56.7422 170.578C56.0547 169.953 55.5078 169.211 55.1016 168.352C54.6953 167.492 54.4922 166.484 54.4922 165.328C54.4922 163.828 54.8516 162.508 55.5703 161.367C56.2891 160.227 57.2578 159.273 58.4766 158.508C59.7109 157.727 61.1406 157.141 62.7656 156.75C64.3906 156.344 66.1094 156.141 67.9219 156.141C69.875 156.141 71.8047 156.375 73.7109 156.844C75.6328 157.297 77.5312 157.953 79.4062 158.812L85.5469 156.281V165.562C84.25 164.797 82.9062 164.125 81.5156 163.547C80.1406 162.953 78.7656 162.461 77.3906 162.07C76.0312 161.68 74.6953 161.391 73.3828 161.203C72.0859 161 70.875 160.898 69.75 160.898C69 160.898 68.3203 160.953 67.7109 161.062C67.1016 161.172 66.5703 161.32 66.1172 161.508C65.6797 161.695 65.3359 161.914 65.0859 162.164C64.8516 162.414 64.7344 162.68 64.7344 162.961C64.7344 163.242 64.8359 163.492 65.0391 163.711C65.2578 163.93 65.6797 164.141 66.3047 164.344C66.9453 164.531 67.8438 164.719 69 164.906C70.1719 165.078 71.7031 165.258 73.5938 165.445C75.4531 165.633 77.2344 165.914 78.9375 166.289C80.6562 166.648 82.1719 167.164 83.4844 167.836C84.7969 168.492 85.8438 169.352 86.625 170.414C87.4062 171.461 87.7969 172.773 87.7969 174.352C87.7969 175.492 87.5859 176.523 87.1641 177.445C86.7578 178.367 86.2031 179.18 85.5 179.883C84.7969 180.586 83.9766 181.195 83.0391 181.711C82.1016 182.211 81.1016 182.625 80.0391 182.953C78.9922 183.281 77.9141 183.523 76.8047 183.68C75.6953 183.836 74.6172 183.914 73.5703 183.914C71.5078 183.914 69.4688 183.656 67.4531 183.141C65.4375 182.625 63.4766 181.867 61.5703 180.867L55.4297 183.609V173.438ZM95.625 161.836H91.5938V158.203C92.7031 158.203 93.7422 158.047 94.7109 157.734C95.6797 157.406 96.5703 156.969 97.3828 156.422C98.2109 155.875 98.9453 155.242 99.5859 154.523C100.242 153.789 100.797 153.023 101.25 152.227C101.703 151.414 102.047 150.594 102.281 149.766C102.531 148.922 102.656 148.109 102.656 147.328H107.273V157.055H118.781V161.836H107.273V172.359C107.273 173.812 107.445 174.969 107.789 175.828C108.148 176.688 108.602 177.336 109.148 177.773C109.711 178.211 110.32 178.492 110.977 178.617C111.648 178.742 112.297 178.805 112.922 178.805C114.516 178.805 115.773 178.352 116.695 177.445C117.633 176.523 118.102 175.117 118.102 173.227C118.102 173.086 118.102 172.938 118.102 172.781C118.102 172.625 118.086 172.461 118.055 172.289L122.086 173.484C122.133 173.906 122.156 174.305 122.156 174.68C122.156 175.82 121.977 176.844 121.617 177.75C121.258 178.656 120.766 179.453 120.141 180.141C119.516 180.812 118.773 181.391 117.914 181.875C117.07 182.359 116.164 182.75 115.195 183.047C114.227 183.344 113.219 183.562 112.172 183.703C111.125 183.844 110.086 183.914 109.055 183.914C107.008 183.914 105.156 183.711 103.5 183.305C101.844 182.898 100.43 182.25 99.2578 181.359C98.1016 180.469 97.2031 179.32 96.5625 177.914C95.9375 176.492 95.625 174.773 95.625 172.758V161.836ZM125.203 176.953C125.203 175.703 125.461 174.625 125.977 173.719C126.492 172.797 127.188 172.016 128.062 171.375C128.938 170.719 129.961 170.188 131.133 169.781C132.305 169.375 133.547 169.062 134.859 168.844C136.172 168.609 137.516 168.453 138.891 168.375C140.281 168.281 141.633 168.234 142.945 168.234C143.68 168.234 144.453 168.25 145.266 168.281C146.094 168.297 146.922 168.32 147.75 168.352C147.719 167.227 147.617 166.227 147.445 165.352C147.289 164.461 147.016 163.719 146.625 163.125C146.25 162.516 145.719 162.055 145.031 161.742C144.359 161.414 143.492 161.25 142.43 161.25C141.742 161.25 141.062 161.336 140.391 161.508C139.719 161.68 139.109 161.953 138.562 162.328C138.016 162.703 137.547 163.188 137.156 163.781C136.781 164.359 136.539 165.07 136.43 165.914L127.031 164.625C127.031 163.562 127.242 162.617 127.664 161.789C128.102 160.945 128.695 160.211 129.445 159.586C130.195 158.945 131.078 158.406 132.094 157.969C133.125 157.531 134.227 157.18 135.398 156.914C136.586 156.648 137.82 156.453 139.102 156.328C140.398 156.203 141.688 156.141 142.969 156.141C144.516 156.141 145.992 156.211 147.398 156.352C148.82 156.477 150.141 156.711 151.359 157.055C152.578 157.398 153.68 157.859 154.664 158.438C155.664 159.016 156.516 159.75 157.219 160.641C157.922 161.531 158.461 162.594 158.836 163.828C159.227 165.062 159.422 166.5 159.422 168.141V176.391C159.422 177.641 159.727 178.516 160.336 179.016C160.961 179.516 161.805 179.766 162.867 179.766V182.461C162.727 182.602 162.484 182.758 162.141 182.93C161.812 183.086 161.375 183.234 160.828 183.375C160.297 183.531 159.664 183.656 158.93 183.75C158.195 183.859 157.352 183.914 156.398 183.914C155.242 183.914 154.203 183.852 153.281 183.727C152.359 183.617 151.555 183.414 150.867 183.117C150.195 182.836 149.633 182.445 149.18 181.945C148.727 181.445 148.383 180.812 148.148 180.047C147.367 180.734 146.484 181.32 145.5 181.805C144.516 182.289 143.469 182.688 142.359 183C141.266 183.312 140.133 183.539 138.961 183.68C137.805 183.836 136.664 183.914 135.539 183.914C134.789 183.914 134.016 183.875 133.219 183.797C132.422 183.719 131.641 183.578 130.875 183.375C130.109 183.188 129.383 182.93 128.695 182.602C128.008 182.258 127.406 181.828 126.891 181.312C126.375 180.797 125.961 180.18 125.648 179.461C125.352 178.742 125.203 177.906 125.203 176.953ZM137.32 175.922C137.32 176.344 137.43 176.727 137.648 177.07C137.867 177.414 138.164 177.703 138.539 177.938C138.914 178.172 139.352 178.352 139.852 178.477C140.352 178.602 140.883 178.664 141.445 178.664C142.023 178.664 142.664 178.602 143.367 178.477C144.07 178.336 144.734 178.109 145.359 177.797C146 177.484 146.547 177.078 147 176.578C147.453 176.062 147.711 175.438 147.773 174.703V172.312C147.555 172.297 147.344 172.289 147.141 172.289C146.953 172.289 146.773 172.289 146.602 172.289C144.93 172.289 143.508 172.375 142.336 172.547C141.164 172.703 140.203 172.938 139.453 173.25C138.719 173.562 138.18 173.945 137.836 174.398C137.492 174.852 137.32 175.359 137.32 175.922ZM171.633 177.281V163.008L165.492 157.758L182.812 157.055V162.023C183.422 161.055 184.117 160.203 184.898 159.469C185.695 158.734 186.539 158.125 187.43 157.641C188.336 157.141 189.273 156.766 190.242 156.516C191.227 156.266 192.211 156.141 193.195 156.141C194.492 156.141 195.609 156.359 196.547 156.797C197.5 157.234 198.281 157.852 198.891 158.648C199.5 159.43 199.953 160.359 200.25 161.438C200.547 162.516 200.695 163.688 200.695 164.953C200.695 165.359 200.68 165.773 200.648 166.195C200.617 166.617 200.555 167.031 200.461 167.438L191.906 168.211C191.969 167.961 192 167.727 192 167.508C192.016 167.273 192.023 167.047 192.023 166.828C192.023 166.188 191.945 165.602 191.789 165.07C191.648 164.539 191.43 164.086 191.133 163.711C190.852 163.32 190.484 163.023 190.031 162.82C189.594 162.602 189.078 162.492 188.484 162.492C187.859 162.492 187.289 162.617 186.773 162.867C186.258 163.117 185.789 163.453 185.367 163.875C184.945 164.297 184.57 164.789 184.242 165.352C183.93 165.898 183.664 166.477 183.445 167.086C183.242 167.68 183.086 168.281 182.977 168.891C182.867 169.5 182.812 170.07 182.812 170.602V177.047L190.969 183H165.516L171.633 177.281ZM203.25 170.039C203.25 167.68 203.727 165.633 204.68 163.898C205.648 162.148 206.992 160.703 208.711 159.562C210.43 158.406 212.469 157.547 214.828 156.984C217.188 156.422 219.766 156.141 222.562 156.141C225.359 156.141 227.938 156.422 230.297 156.984C232.656 157.547 234.695 158.406 236.414 159.562C238.133 160.703 239.469 162.148 240.422 163.898C241.391 165.633 241.875 167.68 241.875 170.039C241.875 172.492 241.391 174.594 240.422 176.344C239.469 178.094 238.133 179.531 236.414 180.656C234.695 181.781 232.656 182.602 230.297 183.117C227.938 183.648 225.359 183.914 222.562 183.914C219.766 183.914 217.188 183.648 214.828 183.117C212.469 182.602 210.43 181.781 208.711 180.656C206.992 179.531 205.648 178.094 204.68 176.344C203.727 174.594 203.25 172.492 203.25 170.039ZM215.578 170.039C215.578 171.477 215.758 172.781 216.117 173.953C216.492 175.125 216.992 176.125 217.617 176.953C218.258 177.766 219 178.398 219.844 178.852C220.703 179.289 221.609 179.508 222.562 179.508C223.516 179.508 224.414 179.289 225.258 178.852C226.117 178.398 226.859 177.766 227.484 176.953C228.125 176.125 228.625 175.125 228.984 173.953C229.359 172.781 229.547 171.477 229.547 170.039C229.547 168.586 229.359 167.266 228.984 166.078C228.625 164.891 228.125 163.875 227.484 163.031C226.859 162.188 226.117 161.531 225.258 161.062C224.414 160.594 223.516 160.359 222.562 160.359C221.609 160.359 220.703 160.594 219.844 161.062C219 161.531 218.258 162.188 217.617 163.031C216.992 163.875 216.492 164.891 216.117 166.078C215.758 167.266 215.578 168.586 215.578 170.039ZM249.656 161.836H245.625V158.203C246.734 158.203 247.773 158.047 248.742 157.734C249.711 157.406 250.602 156.969 251.414 156.422C252.242 155.875 252.977 155.242 253.617 154.523C254.273 153.789 254.828 153.023 255.281 152.227C255.734 151.414 256.078 150.594 256.312 149.766C256.562 148.922 256.688 148.109 256.688 147.328H261.305V157.055H272.812V161.836H261.305V172.359C261.305 173.812 261.477 174.969 261.82 175.828C262.18 176.688 262.633 177.336 263.18 177.773C263.742 178.211 264.352 178.492 265.008 178.617C265.68 178.742 266.328 178.805 266.953 178.805C268.547 178.805 269.805 178.352 270.727 177.445C271.664 176.523 272.133 175.117 272.133 173.227C272.133 173.086 272.133 172.938 272.133 172.781C272.133 172.625 272.117 172.461 272.086 172.289L276.117 173.484C276.164 173.906 276.188 174.305 276.188 174.68C276.188 175.82 276.008 176.844 275.648 177.75C275.289 178.656 274.797 179.453 274.172 180.141C273.547 180.812 272.805 181.391 271.945 181.875C271.102 182.359 270.195 182.75 269.227 183.047C268.258 183.344 267.25 183.562 266.203 183.703C265.156 183.844 264.117 183.914 263.086 183.914C261.039 183.914 259.188 183.711 257.531 183.305C255.875 182.898 254.461 182.25 253.289 181.359C252.133 180.469 251.234 179.32 250.594 177.914C249.969 176.492 249.656 174.773 249.656 172.758V161.836ZM284.32 177.281V151.828L278.18 146.578L295.5 145.875V161.883C296.672 160.039 298.172 158.625 300 157.641C301.844 156.641 303.93 156.141 306.258 156.141C308.07 156.141 309.68 156.422 311.086 156.984C312.508 157.531 313.695 158.359 314.648 159.469C315.617 160.562 316.352 161.938 316.852 163.594C317.352 165.234 317.602 167.141 317.602 169.312V177.281L323.953 183H302.109L306.422 177.281V169.805C306.422 168.805 306.328 167.859 306.141 166.969C305.953 166.078 305.656 165.297 305.25 164.625C304.859 163.953 304.352 163.422 303.727 163.031C303.102 162.641 302.352 162.445 301.477 162.445C300.602 162.445 299.797 162.641 299.062 163.031C298.328 163.406 297.695 163.961 297.164 164.695C296.633 165.414 296.219 166.305 295.922 167.367C295.641 168.414 295.5 169.617 295.5 170.977V177.281L299.812 183H277.969L284.32 177.281ZM325.969 166.195C325.969 164.117 326.273 162.234 326.883 160.547C327.492 158.859 328.336 157.359 329.414 156.047C330.492 154.734 331.766 153.609 333.234 152.672C334.703 151.719 336.297 150.938 338.016 150.328C339.75 149.703 341.57 149.242 343.477 148.945C345.383 148.648 347.312 148.5 349.266 148.5C350.703 148.5 352.062 148.586 353.344 148.758C354.625 148.93 355.82 149.164 356.93 149.461C358.055 149.742 359.086 150.07 360.023 150.445C360.961 150.82 361.805 151.211 362.555 151.617L364.266 149.391H369.164V161.297L362.953 162.469C362.578 161.203 362.023 160.023 361.289 158.93C360.555 157.836 359.672 156.891 358.641 156.094C357.609 155.297 356.438 154.672 355.125 154.219C353.828 153.75 352.414 153.516 350.883 153.516C348.914 153.516 347.227 153.867 345.82 154.57C344.414 155.258 343.258 156.188 342.352 157.359C341.461 158.516 340.805 159.859 340.383 161.391C339.961 162.922 339.75 164.523 339.75 166.195C339.75 168.242 340.047 170.055 340.641 171.633C341.25 173.211 342.094 174.539 343.172 175.617C344.25 176.68 345.523 177.484 346.992 178.031C348.477 178.578 350.102 178.852 351.867 178.852C353.242 178.852 354.539 178.68 355.758 178.336C356.977 177.977 358.047 177.438 358.969 176.719C359.906 175.984 360.664 175.062 361.242 173.953C361.836 172.844 362.195 171.531 362.32 170.016H369.492C369.492 171.5 369.25 172.875 368.766 174.141C368.297 175.406 367.625 176.555 366.75 177.586C365.891 178.617 364.852 179.531 363.633 180.328C362.414 181.109 361.055 181.766 359.555 182.297C358.055 182.828 356.438 183.227 354.703 183.492C352.984 183.773 351.18 183.914 349.289 183.914C347.508 183.914 345.688 183.789 343.828 183.539C341.984 183.305 340.195 182.914 338.461 182.367C336.742 181.82 335.125 181.102 333.609 180.211C332.094 179.305 330.766 178.195 329.625 176.883C328.5 175.57 327.609 174.031 326.953 172.266C326.297 170.5 325.969 168.477 325.969 166.195ZM384.234 154.055C383.391 154.055 382.594 153.898 381.844 153.586C381.109 153.258 380.469 152.82 379.922 152.273C379.375 151.727 378.938 151.086 378.609 150.352C378.297 149.602 378.141 148.805 378.141 147.961C378.141 147.117 378.297 146.328 378.609 145.594C378.938 144.844 379.375 144.195 379.922 143.648C380.469 143.086 381.109 142.648 381.844 142.336C382.594 142.008 383.391 141.844 384.234 141.844C385.078 141.844 385.867 142.008 386.602 142.336C387.352 142.648 388 143.086 388.547 143.648C389.109 144.195 389.547 144.844 389.859 145.594C390.188 146.328 390.352 147.117 390.352 147.961C390.352 148.805 390.188 149.602 389.859 150.352C389.547 151.086 389.109 151.727 388.547 152.273C388 152.82 387.352 153.258 386.602 153.586C385.867 153.898 385.078 154.055 384.234 154.055ZM379.289 177.281V163.008L373.148 157.758L390.234 157.055V177.281L396.586 183H372.938L379.289 177.281ZM404.039 163.477L397.688 157.758L415.219 157.055V161.391C416.328 159.609 417.781 158.289 419.578 157.43C421.391 156.57 423.438 156.141 425.719 156.141C428.141 156.141 430.273 156.516 432.117 157.266C433.977 158 435.531 159.016 436.781 160.312C438.031 161.594 438.977 163.094 439.617 164.812C440.258 166.531 440.578 168.375 440.578 170.344C440.578 172.094 440.297 173.789 439.734 175.43C439.172 177.055 438.297 178.5 437.109 179.766C435.922 181.016 434.398 182.023 432.539 182.789C430.695 183.539 428.477 183.914 425.883 183.914C423.508 183.914 421.414 183.508 419.602 182.695C417.789 181.867 416.328 180.586 415.219 178.852V187.5L423.914 193.219H397.688L404.039 187.5V163.477ZM415.219 170.039C415.219 171.445 415.406 172.641 415.781 173.625C416.172 174.609 416.672 175.414 417.281 176.039C417.906 176.648 418.602 177.094 419.367 177.375C420.148 177.656 420.938 177.797 421.734 177.797C422.688 177.797 423.562 177.633 424.359 177.305C425.156 176.977 425.844 176.492 426.422 175.852C427 175.195 427.445 174.383 427.758 173.414C428.086 172.445 428.25 171.32 428.25 170.039C428.25 168.758 428.086 167.625 427.758 166.641C427.445 165.641 427 164.805 426.422 164.133C425.844 163.445 425.156 162.93 424.359 162.586C423.562 162.242 422.688 162.07 421.734 162.07C420.891 162.07 420.078 162.219 419.297 162.516C418.516 162.797 417.82 163.258 417.211 163.898C416.617 164.523 416.133 165.344 415.758 166.359C415.398 167.359 415.219 168.586 415.219 170.039ZM450.211 177.281V151.828L444.07 146.578L461.391 145.875V161.883C462.562 160.039 464.062 158.625 465.891 157.641C467.734 156.641 469.82 156.141 472.148 156.141C473.961 156.141 475.57 156.422 476.977 156.984C478.398 157.531 479.586 158.359 480.539 159.469C481.508 160.562 482.242 161.938 482.742 163.594C483.242 165.234 483.492 167.141 483.492 169.312V177.281L489.844 183H468L472.312 177.281V169.805C472.312 168.805 472.219 167.859 472.031 166.969C471.844 166.078 471.547 165.297 471.141 164.625C470.75 163.953 470.242 163.422 469.617 163.031C468.992 162.641 468.242 162.445 467.367 162.445C466.492 162.445 465.688 162.641 464.953 163.031C464.219 163.406 463.586 163.961 463.055 164.695C462.523 165.414 462.109 166.305 461.812 167.367C461.531 168.414 461.391 169.617 461.391 170.977V177.281L465.703 183H443.859L450.211 177.281ZM492.094 170.414C492.094 168.508 492.367 166.828 492.914 165.375C493.477 163.922 494.227 162.672 495.164 161.625C496.117 160.562 497.219 159.68 498.469 158.977C499.734 158.273 501.078 157.711 502.5 157.289C503.922 156.867 505.383 156.57 506.883 156.398C508.398 156.227 509.867 156.141 511.289 156.141C513.555 156.141 515.664 156.391 517.617 156.891C519.586 157.391 521.289 158.195 522.727 159.305C524.164 160.414 525.289 161.875 526.102 163.688C526.93 165.484 527.344 167.68 527.344 170.273H504.445C504.508 171.898 504.781 173.242 505.266 174.305C505.766 175.352 506.406 176.188 507.188 176.812C507.969 177.422 508.859 177.852 509.859 178.102C510.859 178.352 511.891 178.477 512.953 178.477C513.906 178.477 514.938 178.422 516.047 178.312C517.156 178.203 518.266 178 519.375 177.703C520.484 177.391 521.547 176.969 522.562 176.438C523.578 175.906 524.461 175.211 525.211 174.352L527.602 176.227C527.211 177.18 526.664 178.031 525.961 178.781C525.258 179.531 524.453 180.195 523.547 180.773C522.641 181.336 521.656 181.82 520.594 182.227C519.547 182.617 518.469 182.938 517.359 183.188C516.25 183.438 515.141 183.617 514.031 183.727C512.922 183.852 511.859 183.914 510.844 183.914C507.984 183.914 505.398 183.617 503.086 183.023C500.789 182.43 498.82 181.562 497.18 180.422C495.555 179.266 494.297 177.852 493.406 176.18C492.531 174.492 492.094 172.57 492.094 170.414ZM516 166.617C516 165.461 515.891 164.492 515.672 163.711C515.469 162.914 515.156 162.273 514.734 161.789C514.312 161.305 513.781 160.961 513.141 160.758C512.516 160.539 511.781 160.43 510.938 160.43C509.156 160.43 507.742 160.969 506.695 162.047C505.648 163.125 504.961 164.648 504.633 166.617H516ZM537.117 177.281V163.008L530.977 157.758L548.297 157.055V162.023C548.906 161.055 549.602 160.203 550.383 159.469C551.18 158.734 552.023 158.125 552.914 157.641C553.82 157.141 554.758 156.766 555.727 156.516C556.711 156.266 557.695 156.141 558.68 156.141C559.977 156.141 561.094 156.359 562.031 156.797C562.984 157.234 563.766 157.852 564.375 158.648C564.984 159.43 565.438 160.359 565.734 161.438C566.031 162.516 566.18 163.688 566.18 164.953C566.18 165.359 566.164 165.773 566.133 166.195C566.102 166.617 566.039 167.031 565.945 167.438L557.391 168.211C557.453 167.961 557.484 167.727 557.484 167.508C557.5 167.273 557.508 167.047 557.508 166.828C557.508 166.188 557.43 165.602 557.273 165.07C557.133 164.539 556.914 164.086 556.617 163.711C556.336 163.32 555.969 163.023 555.516 162.82C555.078 162.602 554.562 162.492 553.969 162.492C553.344 162.492 552.773 162.617 552.258 162.867C551.742 163.117 551.273 163.453 550.852 163.875C550.43 164.297 550.055 164.789 549.727 165.352C549.414 165.898 549.148 166.477 548.93 167.086C548.727 167.68 548.57 168.281 548.461 168.891C548.352 169.5 548.297 170.07 548.297 170.602V177.047L556.453 183H531L537.117 177.281Z" fill="#1D0D10"/>
</svg>
