<svg width="101" height="128" viewBox="0 0 101 128" fill="none" xmlns="http://www.w3.org/2000/svg">
<path d="M55.212 97L68.212 96V105H58.212V109H68.212V117H55.212V126C51.212 128 51.2119 128 48.212 128C48.2105 127.387 48.2095 126.774 48.208 126.143C48.1883 119.751 48.1339 113.359 48.0596 106.968C48.0364 104.584 48.022 102.199 48.0166 99.8154C48.0073 96.3843 47.9661 92.9542 47.919 89.5234C47.9229 88.4607 47.9267 87.3977 47.9307 86.3027C47.8195 79.7914 47.8196 79.7912 44.668 74.2803C43.8576 73.528 43.0469 72.7751 42.212 72C46.212 70 46.212 70 56.212 70L55.212 97ZM81.212 0C88.4856 1.77407 93.1243 5.98653 97.087 12.1875C100.83 18.4712 101.21 25.1207 99.751 32.2539C97.3007 39.6193 92.0532 45.4306 85.212 49C82.837 48.75 82.8369 48.75 81.212 48C81.212 51.9789 82.7342 55.0034 84.337 58.5625L85.1963 60.6387C86.8347 64.268 87.77 65.8003 91.4541 67.4648L94.212 68V71L91.9112 71.4805C85.9532 72.619 85.9531 72.619 81.462 76.25L80.212 79C79.0664 80.3088 77.8743 81.5777 76.6495 82.8125C76.0372 83.43 75.8413 83.6264 75.4893 83.9814C74.8123 84.8714 74.5196 85.0798 73.212 86H71.212L70.212 89C70.07 88.9527 69.9282 88.9048 69.7862 88.8574C68.7806 90.4465 67.6787 91.5975 66.212 93C62.3353 86.2949 62.3353 86.2948 61.962 82.375C63.6972 79.078 66.2542 77.5825 69.2705 75.4727C72.5055 73.0187 73.768 70.332 75.0245 66.5625C75.2623 63.3113 74.3132 61.0447 73.212 58V54H71.212L70.9854 56.2656C70.0089 59.7179 68.7019 60.6546 65.837 62.75L63.4385 64.5469C57.7238 68.2764 50.7687 67.6228 44.212 67C38.3989 65.1782 33.2849 62.4475 30.212 57V53L29.212 55C28.9843 54.5448 28.7563 54.0897 28.5254 53.6279C27.2195 59.0397 26.306 64.4307 27.212 70C28.8742 72.6492 29.9548 74.0115 32.212 76L34.2901 77.8828C36.2417 79.6168 38.2211 81.3115 40.212 83L41.212 84C41.0756 89.5676 40.2632 94.8036 38.212 100H36.212L35.7315 98.2422C33.186 89.7198 28.6209 85.1521 21.9815 79.5156C20.212 78 20.2119 77.9999 18.212 76V73L16.2784 72.668L13.7745 72.1875L11.2784 71.7305L9.21196 71L8.21196 68L10.8995 66.6875C15.6794 63.5879 17.2229 58.1048 19.212 53H21.212L19.212 52C19.4186 50.4712 19.6453 49.2475 20.044 48.167C19.769 48.442 19.4924 48.7196 19.212 49C16.0473 49.4649 14.6168 49.2567 11.8955 47.5312C5.94485 42.1497 0.868528 36.4016 0.00882994 28.0195C-0.201922 18.0966 3.3646 11.1561 10.212 4C13.5834 1.36087 15.8989 -0.437647 20.212 1C18.5886 2.70883 16.9188 4.37448 15.212 6H13.212C10.1877 12.8047 10.0015 20.7537 12.587 27.6875C14.0049 30.0942 14.005 30.0943 16.212 31C22.0936 31.4659 22.0937 31.4659 27.212 29C26.7302 25.989 25.8048 24.3461 24.1495 21.6875C21.9884 18.0831 21.8684 15.2084 22.212 11L24.212 10L24.6495 13.125C25.9481 17.6564 28.8669 19.4792 32.7666 21.8555C36.2992 23.5089 39.3365 23.677 43.212 24C46.0869 25.1875 46.087 25.1875 48.212 27C49.5245 30.1875 49.5245 30.1875 50.212 33L52.212 30C56.1077 24.9356 60.2957 23.7975 66.3252 21.9805C69.8284 20.7906 72.2558 19.1782 75.212 17H77.212V10H79.212C79.7645 16.1889 78.9828 19.1895 75.208 24.1406C74.0022 25.9688 74.0022 25.9689 74.4541 28.1523C75.0844 30.1253 75.0845 30.1253 76.8995 31.3125C80.0712 32.2555 82.0452 31.9236 85.212 31C88.022 28.7216 89.0609 27.453 90.212 24C90.7701 15.9063 89.3804 9.21779 84.0245 2.9375C83.1002 1.94582 82.1674 0.961634 81.212 0ZM33 44C33.504 48.4094 34.9621 50.7884 38 54C40.6841 55.7081 41.7617 56 45 56C43.6285 52.8158 42.1383 51.0289 39.4375 48.875C36.7898 46.791 36.7898 46.791 35 44H33ZM65.212 44C63.4222 46.791 63.4222 46.791 60.7745 48.875C58.0737 51.0289 56.5835 52.8158 55.212 56C58.4503 56 59.5279 55.7081 62.212 54C65.2499 50.7884 66.708 48.4094 67.212 44H65.212ZM40.3663 49.1689C40.8026 49.6468 41.3051 50.1434 42.2266 51.0361C42.2123 50.7575 42.212 50.4236 42.212 50L40.3995 49.1875C40.3883 49.1814 40.3774 49.175 40.3663 49.1689Z" fill="#1D0D10"/>
</svg>
