<svg width="567" height="52" viewBox="0 0 567 52" fill="none" xmlns="http://www.w3.org/2000/svg">
<path d="M6.89062 35.2734L17.9297 13.2891L12.8906 7.54688H40.3594L36.1172 13.5L46.0078 35.2266L52.1719 41.1562H27.5625L32.6719 35.2734L31.6641 32.8125H16.1953L15.0938 35.2734L21.8203 41.1562H0L6.89062 35.2734ZM29.6953 27.9141L24.3281 14.6953L18.3984 27.9141H29.6953ZM55.4297 31.5938C56.6172 32.375 57.8906 33.1016 59.25 33.7734C60.625 34.4297 62.0469 35.0078 63.5156 35.5078C64.9844 35.9922 66.4844 36.375 68.0156 36.6562C69.5469 36.9375 71.0781 37.0781 72.6094 37.0781C73.1875 37.0781 73.7578 37.0391 74.3203 36.9609C74.8984 36.8828 75.4062 36.7656 75.8438 36.6094C76.2969 36.4375 76.6562 36.2188 76.9219 35.9531C77.2031 35.6719 77.3438 35.3359 77.3438 34.9453C77.3438 34.6172 77.2344 34.3281 77.0156 34.0781C76.8125 33.8125 76.4141 33.5703 75.8203 33.3516C75.2266 33.1328 74.3906 32.9375 73.3125 32.7656C72.25 32.5938 70.8594 32.4375 69.1406 32.2969C67.9844 32.2031 66.8203 32.0859 65.6484 31.9453C64.4766 31.7891 63.3438 31.5781 62.25 31.3125C61.1719 31.0469 60.1562 30.7031 59.2031 30.2812C58.2656 29.8594 57.4453 29.3438 56.7422 28.7344C56.0547 28.1094 55.5078 27.3672 55.1016 26.5078C54.6953 25.6484 54.4922 24.6406 54.4922 23.4844C54.4922 21.9844 54.8516 20.6641 55.5703 19.5234C56.2891 18.3828 57.2578 17.4297 58.4766 16.6641C59.7109 15.8828 61.1406 15.2969 62.7656 14.9062C64.3906 14.5 66.1094 14.2969 67.9219 14.2969C69.875 14.2969 71.8047 14.5312 73.7109 15C75.6328 15.4531 77.5312 16.1094 79.4062 16.9688L85.5469 14.4375V23.7188C84.25 22.9531 82.9062 22.2812 81.5156 21.7031C80.1406 21.1094 78.7656 20.6172 77.3906 20.2266C76.0312 19.8359 74.6953 19.5469 73.3828 19.3594C72.0859 19.1562 70.875 19.0547 69.75 19.0547C69 19.0547 68.3203 19.1094 67.7109 19.2188C67.1016 19.3281 66.5703 19.4766 66.1172 19.6641C65.6797 19.8516 65.3359 20.0703 65.0859 20.3203C64.8516 20.5703 64.7344 20.8359 64.7344 21.1172C64.7344 21.3984 64.8359 21.6484 65.0391 21.8672C65.2578 22.0859 65.6797 22.2969 66.3047 22.5C66.9453 22.6875 67.8438 22.875 69 23.0625C70.1719 23.2344 71.7031 23.4141 73.5938 23.6016C75.4531 23.7891 77.2344 24.0703 78.9375 24.4453C80.6562 24.8047 82.1719 25.3203 83.4844 25.9922C84.7969 26.6484 85.8438 27.5078 86.625 28.5703C87.4062 29.6172 87.7969 30.9297 87.7969 32.5078C87.7969 33.6484 87.5859 34.6797 87.1641 35.6016C86.7578 36.5234 86.2031 37.3359 85.5 38.0391C84.7969 38.7422 83.9766 39.3516 83.0391 39.8672C82.1016 40.3672 81.1016 40.7812 80.0391 41.1094C78.9922 41.4375 77.9141 41.6797 76.8047 41.8359C75.6953 41.9922 74.6172 42.0703 73.5703 42.0703C71.5078 42.0703 69.4688 41.8125 67.4531 41.2969C65.4375 40.7812 63.4766 40.0234 61.5703 39.0234L55.4297 41.7656V31.5938ZM95.625 19.9922H91.5938V16.3594C92.7031 16.3594 93.7422 16.2031 94.7109 15.8906C95.6797 15.5625 96.5703 15.125 97.3828 14.5781C98.2109 14.0312 98.9453 13.3984 99.5859 12.6797C100.242 11.9453 100.797 11.1797 101.25 10.3828C101.703 9.57031 102.047 8.75 102.281 7.92188C102.531 7.07812 102.656 6.26562 102.656 5.48438H107.273V15.2109H118.781V19.9922H107.273V30.5156C107.273 31.9688 107.445 33.125 107.789 33.9844C108.148 34.8438 108.602 35.4922 109.148 35.9297C109.711 36.3672 110.32 36.6484 110.977 36.7734C111.648 36.8984 112.297 36.9609 112.922 36.9609C114.516 36.9609 115.773 36.5078 116.695 35.6016C117.633 34.6797 118.102 33.2734 118.102 31.3828C118.102 31.2422 118.102 31.0938 118.102 30.9375C118.102 30.7812 118.086 30.6172 118.055 30.4453L122.086 31.6406C122.133 32.0625 122.156 32.4609 122.156 32.8359C122.156 33.9766 121.977 35 121.617 35.9062C121.258 36.8125 120.766 37.6094 120.141 38.2969C119.516 38.9688 118.773 39.5469 117.914 40.0312C117.07 40.5156 116.164 40.9062 115.195 41.2031C114.227 41.5 113.219 41.7188 112.172 41.8594C111.125 42 110.086 42.0703 109.055 42.0703C107.008 42.0703 105.156 41.8672 103.5 41.4609C101.844 41.0547 100.43 40.4062 99.2578 39.5156C98.1016 38.625 97.2031 37.4766 96.5625 36.0703C95.9375 34.6484 95.625 32.9297 95.625 30.9141V19.9922ZM125.203 35.1094C125.203 33.8594 125.461 32.7812 125.977 31.875C126.492 30.9531 127.188 30.1719 128.062 29.5312C128.938 28.875 129.961 28.3438 131.133 27.9375C132.305 27.5312 133.547 27.2188 134.859 27C136.172 26.7656 137.516 26.6094 138.891 26.5312C140.281 26.4375 141.633 26.3906 142.945 26.3906C143.68 26.3906 144.453 26.4062 145.266 26.4375C146.094 26.4531 146.922 26.4766 147.75 26.5078C147.719 25.3828 147.617 24.3828 147.445 23.5078C147.289 22.6172 147.016 21.875 146.625 21.2812C146.25 20.6719 145.719 20.2109 145.031 19.8984C144.359 19.5703 143.492 19.4062 142.43 19.4062C141.742 19.4062 141.062 19.4922 140.391 19.6641C139.719 19.8359 139.109 20.1094 138.562 20.4844C138.016 20.8594 137.547 21.3438 137.156 21.9375C136.781 22.5156 136.539 23.2266 136.43 24.0703L127.031 22.7812C127.031 21.7188 127.242 20.7734 127.664 19.9453C128.102 19.1016 128.695 18.3672 129.445 17.7422C130.195 17.1016 131.078 16.5625 132.094 16.125C133.125 15.6875 134.227 15.3359 135.398 15.0703C136.586 14.8047 137.82 14.6094 139.102 14.4844C140.398 14.3594 141.688 14.2969 142.969 14.2969C144.516 14.2969 145.992 14.3672 147.398 14.5078C148.82 14.6328 150.141 14.8672 151.359 15.2109C152.578 15.5547 153.68 16.0156 154.664 16.5938C155.664 17.1719 156.516 17.9062 157.219 18.7969C157.922 19.6875 158.461 20.75 158.836 21.9844C159.227 23.2188 159.422 24.6562 159.422 26.2969V34.5469C159.422 35.7969 159.727 36.6719 160.336 37.1719C160.961 37.6719 161.805 37.9219 162.867 37.9219V40.6172C162.727 40.7578 162.484 40.9141 162.141 41.0859C161.812 41.2422 161.375 41.3906 160.828 41.5312C160.297 41.6875 159.664 41.8125 158.93 41.9062C158.195 42.0156 157.352 42.0703 156.398 42.0703C155.242 42.0703 154.203 42.0078 153.281 41.8828C152.359 41.7734 151.555 41.5703 150.867 41.2734C150.195 40.9922 149.633 40.6016 149.18 40.1016C148.727 39.6016 148.383 38.9688 148.148 38.2031C147.367 38.8906 146.484 39.4766 145.5 39.9609C144.516 40.4453 143.469 40.8438 142.359 41.1562C141.266 41.4688 140.133 41.6953 138.961 41.8359C137.805 41.9922 136.664 42.0703 135.539 42.0703C134.789 42.0703 134.016 42.0312 133.219 41.9531C132.422 41.875 131.641 41.7344 130.875 41.5312C130.109 41.3438 129.383 41.0859 128.695 40.7578C128.008 40.4141 127.406 39.9844 126.891 39.4688C126.375 38.9531 125.961 38.3359 125.648 37.6172C125.352 36.8984 125.203 36.0625 125.203 35.1094ZM137.32 34.0781C137.32 34.5 137.43 34.8828 137.648 35.2266C137.867 35.5703 138.164 35.8594 138.539 36.0938C138.914 36.3281 139.352 36.5078 139.852 36.6328C140.352 36.7578 140.883 36.8203 141.445 36.8203C142.023 36.8203 142.664 36.7578 143.367 36.6328C144.07 36.4922 144.734 36.2656 145.359 35.9531C146 35.6406 146.547 35.2344 147 34.7344C147.453 34.2188 147.711 33.5938 147.773 32.8594V30.4688C147.555 30.4531 147.344 30.4453 147.141 30.4453C146.953 30.4453 146.773 30.4453 146.602 30.4453C144.93 30.4453 143.508 30.5312 142.336 30.7031C141.164 30.8594 140.203 31.0938 139.453 31.4062C138.719 31.7188 138.18 32.1016 137.836 32.5547C137.492 33.0078 137.32 33.5156 137.32 34.0781ZM171.633 35.4375V21.1641L165.492 15.9141L182.812 15.2109V20.1797C183.422 19.2109 184.117 18.3594 184.898 17.625C185.695 16.8906 186.539 16.2812 187.43 15.7969C188.336 15.2969 189.273 14.9219 190.242 14.6719C191.227 14.4219 192.211 14.2969 193.195 14.2969C194.492 14.2969 195.609 14.5156 196.547 14.9531C197.5 15.3906 198.281 16.0078 198.891 16.8047C199.5 17.5859 199.953 18.5156 200.25 19.5938C200.547 20.6719 200.695 21.8438 200.695 23.1094C200.695 23.5156 200.68 23.9297 200.648 24.3516C200.617 24.7734 200.555 25.1875 200.461 25.5938L191.906 26.3672C191.969 26.1172 192 25.8828 192 25.6641C192.016 25.4297 192.023 25.2031 192.023 24.9844C192.023 24.3438 191.945 23.7578 191.789 23.2266C191.648 22.6953 191.43 22.2422 191.133 21.8672C190.852 21.4766 190.484 21.1797 190.031 20.9766C189.594 20.7578 189.078 20.6484 188.484 20.6484C187.859 20.6484 187.289 20.7734 186.773 21.0234C186.258 21.2734 185.789 21.6094 185.367 22.0312C184.945 22.4531 184.57 22.9453 184.242 23.5078C183.93 24.0547 183.664 24.6328 183.445 25.2422C183.242 25.8359 183.086 26.4375 182.977 27.0469C182.867 27.6562 182.812 28.2266 182.812 28.7578V35.2031L190.969 41.1562H165.516L171.633 35.4375ZM203.25 28.1953C203.25 25.8359 203.727 23.7891 204.68 22.0547C205.648 20.3047 206.992 18.8594 208.711 17.7188C210.43 16.5625 212.469 15.7031 214.828 15.1406C217.188 14.5781 219.766 14.2969 222.562 14.2969C225.359 14.2969 227.938 14.5781 230.297 15.1406C232.656 15.7031 234.695 16.5625 236.414 17.7188C238.133 18.8594 239.469 20.3047 240.422 22.0547C241.391 23.7891 241.875 25.8359 241.875 28.1953C241.875 30.6484 241.391 32.75 240.422 34.5C239.469 36.25 238.133 37.6875 236.414 38.8125C234.695 39.9375 232.656 40.7578 230.297 41.2734C227.938 41.8047 225.359 42.0703 222.562 42.0703C219.766 42.0703 217.188 41.8047 214.828 41.2734C212.469 40.7578 210.43 39.9375 208.711 38.8125C206.992 37.6875 205.648 36.25 204.68 34.5C203.727 32.75 203.25 30.6484 203.25 28.1953ZM215.578 28.1953C215.578 29.6328 215.758 30.9375 216.117 32.1094C216.492 33.2812 216.992 34.2812 217.617 35.1094C218.258 35.9219 219 36.5547 219.844 37.0078C220.703 37.4453 221.609 37.6641 222.562 37.6641C223.516 37.6641 224.414 37.4453 225.258 37.0078C226.117 36.5547 226.859 35.9219 227.484 35.1094C228.125 34.2812 228.625 33.2812 228.984 32.1094C229.359 30.9375 229.547 29.6328 229.547 28.1953C229.547 26.7422 229.359 25.4219 228.984 24.2344C228.625 23.0469 228.125 22.0312 227.484 21.1875C226.859 20.3438 226.117 19.6875 225.258 19.2188C224.414 18.75 223.516 18.5156 222.562 18.5156C221.609 18.5156 220.703 18.75 219.844 19.2188C219 19.6875 218.258 20.3438 217.617 21.1875C216.992 22.0312 216.492 23.0469 216.117 24.2344C215.758 25.4219 215.578 26.7422 215.578 28.1953ZM249.656 19.9922H245.625V16.3594C246.734 16.3594 247.773 16.2031 248.742 15.8906C249.711 15.5625 250.602 15.125 251.414 14.5781C252.242 14.0312 252.977 13.3984 253.617 12.6797C254.273 11.9453 254.828 11.1797 255.281 10.3828C255.734 9.57031 256.078 8.75 256.312 7.92188C256.562 7.07812 256.688 6.26562 256.688 5.48438H261.305V15.2109H272.812V19.9922H261.305V30.5156C261.305 31.9688 261.477 33.125 261.82 33.9844C262.18 34.8438 262.633 35.4922 263.18 35.9297C263.742 36.3672 264.352 36.6484 265.008 36.7734C265.68 36.8984 266.328 36.9609 266.953 36.9609C268.547 36.9609 269.805 36.5078 270.727 35.6016C271.664 34.6797 272.133 33.2734 272.133 31.3828C272.133 31.2422 272.133 31.0938 272.133 30.9375C272.133 30.7812 272.117 30.6172 272.086 30.4453L276.117 31.6406C276.164 32.0625 276.188 32.4609 276.188 32.8359C276.188 33.9766 276.008 35 275.648 35.9062C275.289 36.8125 274.797 37.6094 274.172 38.2969C273.547 38.9688 272.805 39.5469 271.945 40.0312C271.102 40.5156 270.195 40.9062 269.227 41.2031C268.258 41.5 267.25 41.7188 266.203 41.8594C265.156 42 264.117 42.0703 263.086 42.0703C261.039 42.0703 259.188 41.8672 257.531 41.4609C255.875 41.0547 254.461 40.4062 253.289 39.5156C252.133 38.625 251.234 37.4766 250.594 36.0703C249.969 34.6484 249.656 32.9297 249.656 30.9141V19.9922ZM284.32 35.4375V9.98438L278.18 4.73438L295.5 4.03125V20.0391C296.672 18.1953 298.172 16.7812 300 15.7969C301.844 14.7969 303.93 14.2969 306.258 14.2969C308.07 14.2969 309.68 14.5781 311.086 15.1406C312.508 15.6875 313.695 16.5156 314.648 17.625C315.617 18.7188 316.352 20.0938 316.852 21.75C317.352 23.3906 317.602 25.2969 317.602 27.4688V35.4375L323.953 41.1562H302.109L306.422 35.4375V27.9609C306.422 26.9609 306.328 26.0156 306.141 25.125C305.953 24.2344 305.656 23.4531 305.25 22.7812C304.859 22.1094 304.352 21.5781 303.727 21.1875C303.102 20.7969 302.352 20.6016 301.477 20.6016C300.602 20.6016 299.797 20.7969 299.062 21.1875C298.328 21.5625 297.695 22.1172 297.164 22.8516C296.633 23.5703 296.219 24.4609 295.922 25.5234C295.641 26.5703 295.5 27.7734 295.5 29.1328V35.4375L299.812 41.1562H277.969L284.32 35.4375ZM325.969 24.3516C325.969 22.2734 326.273 20.3906 326.883 18.7031C327.492 17.0156 328.336 15.5156 329.414 14.2031C330.492 12.8906 331.766 11.7656 333.234 10.8281C334.703 9.875 336.297 9.09375 338.016 8.48438C339.75 7.85937 341.57 7.39844 343.477 7.10156C345.383 6.80469 347.312 6.65625 349.266 6.65625C350.703 6.65625 352.062 6.74219 353.344 6.91406C354.625 7.08594 355.82 7.32031 356.93 7.61719C358.055 7.89844 359.086 8.22656 360.023 8.60156C360.961 8.97656 361.805 9.36719 362.555 9.77344L364.266 7.54688H369.164V19.4531L362.953 20.625C362.578 19.3594 362.023 18.1797 361.289 17.0859C360.555 15.9922 359.672 15.0469 358.641 14.25C357.609 13.4531 356.438 12.8281 355.125 12.375C353.828 11.9062 352.414 11.6719 350.883 11.6719C348.914 11.6719 347.227 12.0234 345.82 12.7266C344.414 13.4141 343.258 14.3438 342.352 15.5156C341.461 16.6719 340.805 18.0156 340.383 19.5469C339.961 21.0781 339.75 22.6797 339.75 24.3516C339.75 26.3984 340.047 28.2109 340.641 29.7891C341.25 31.3672 342.094 32.6953 343.172 33.7734C344.25 34.8359 345.523 35.6406 346.992 36.1875C348.477 36.7344 350.102 37.0078 351.867 37.0078C353.242 37.0078 354.539 36.8359 355.758 36.4922C356.977 36.1328 358.047 35.5938 358.969 34.875C359.906 34.1406 360.664 33.2188 361.242 32.1094C361.836 31 362.195 29.6875 362.32 28.1719H369.492C369.492 29.6562 369.25 31.0312 368.766 32.2969C368.297 33.5625 367.625 34.7109 366.75 35.7422C365.891 36.7734 364.852 37.6875 363.633 38.4844C362.414 39.2656 361.055 39.9219 359.555 40.4531C358.055 40.9844 356.438 41.3828 354.703 41.6484C352.984 41.9297 351.18 42.0703 349.289 42.0703C347.508 42.0703 345.688 41.9453 343.828 41.6953C341.984 41.4609 340.195 41.0703 338.461 40.5234C336.742 39.9766 335.125 39.2578 333.609 38.3672C332.094 37.4609 330.766 36.3516 329.625 35.0391C328.5 33.7266 327.609 32.1875 326.953 30.4219C326.297 28.6562 325.969 26.6328 325.969 24.3516ZM384.234 12.2109C383.391 12.2109 382.594 12.0547 381.844 11.7422C381.109 11.4141 380.469 10.9766 379.922 10.4297C379.375 9.88281 378.938 9.24219 378.609 8.50781C378.297 7.75781 378.141 6.96094 378.141 6.11719C378.141 5.27344 378.297 4.48437 378.609 3.75C378.938 3 379.375 2.35156 379.922 1.80469C380.469 1.24219 381.109 0.804687 381.844 0.492188C382.594 0.164062 383.391 0 384.234 0C385.078 0 385.867 0.164062 386.602 0.492188C387.352 0.804687 388 1.24219 388.547 1.80469C389.109 2.35156 389.547 3 389.859 3.75C390.188 4.48437 390.352 5.27344 390.352 6.11719C390.352 6.96094 390.188 7.75781 389.859 8.50781C389.547 9.24219 389.109 9.88281 388.547 10.4297C388 10.9766 387.352 11.4141 386.602 11.7422C385.867 12.0547 385.078 12.2109 384.234 12.2109ZM379.289 35.4375V21.1641L373.148 15.9141L390.234 15.2109V35.4375L396.586 41.1562H372.938L379.289 35.4375ZM404.039 21.6328L397.688 15.9141L415.219 15.2109V19.5469C416.328 17.7656 417.781 16.4453 419.578 15.5859C421.391 14.7266 423.438 14.2969 425.719 14.2969C428.141 14.2969 430.273 14.6719 432.117 15.4219C433.977 16.1562 435.531 17.1719 436.781 18.4688C438.031 19.75 438.977 21.25 439.617 22.9688C440.258 24.6875 440.578 26.5312 440.578 28.5C440.578 30.25 440.297 31.9453 439.734 33.5859C439.172 35.2109 438.297 36.6562 437.109 37.9219C435.922 39.1719 434.398 40.1797 432.539 40.9453C430.695 41.6953 428.477 42.0703 425.883 42.0703C423.508 42.0703 421.414 41.6641 419.602 40.8516C417.789 40.0234 416.328 38.7422 415.219 37.0078V45.6562L423.914 51.375H397.688L404.039 45.6562V21.6328ZM415.219 28.1953C415.219 29.6016 415.406 30.7969 415.781 31.7812C416.172 32.7656 416.672 33.5703 417.281 34.1953C417.906 34.8047 418.602 35.25 419.367 35.5312C420.148 35.8125 420.938 35.9531 421.734 35.9531C422.688 35.9531 423.562 35.7891 424.359 35.4609C425.156 35.1328 425.844 34.6484 426.422 34.0078C427 33.3516 427.445 32.5391 427.758 31.5703C428.086 30.6016 428.25 29.4766 428.25 28.1953C428.25 26.9141 428.086 25.7812 427.758 24.7969C427.445 23.7969 427 22.9609 426.422 22.2891C425.844 21.6016 425.156 21.0859 424.359 20.7422C423.562 20.3984 422.688 20.2266 421.734 20.2266C420.891 20.2266 420.078 20.375 419.297 20.6719C418.516 20.9531 417.82 21.4141 417.211 22.0547C416.617 22.6797 416.133 23.5 415.758 24.5156C415.398 25.5156 415.219 26.7422 415.219 28.1953ZM450.211 35.4375V9.98438L444.07 4.73438L461.391 4.03125V20.0391C462.562 18.1953 464.062 16.7812 465.891 15.7969C467.734 14.7969 469.82 14.2969 472.148 14.2969C473.961 14.2969 475.57 14.5781 476.977 15.1406C478.398 15.6875 479.586 16.5156 480.539 17.625C481.508 18.7188 482.242 20.0938 482.742 21.75C483.242 23.3906 483.492 25.2969 483.492 27.4688V35.4375L489.844 41.1562H468L472.312 35.4375V27.9609C472.312 26.9609 472.219 26.0156 472.031 25.125C471.844 24.2344 471.547 23.4531 471.141 22.7812C470.75 22.1094 470.242 21.5781 469.617 21.1875C468.992 20.7969 468.242 20.6016 467.367 20.6016C466.492 20.6016 465.688 20.7969 464.953 21.1875C464.219 21.5625 463.586 22.1172 463.055 22.8516C462.523 23.5703 462.109 24.4609 461.812 25.5234C461.531 26.5703 461.391 27.7734 461.391 29.1328V35.4375L465.703 41.1562H443.859L450.211 35.4375ZM492.094 28.5703C492.094 26.6641 492.367 24.9844 492.914 23.5312C493.477 22.0781 494.227 20.8281 495.164 19.7812C496.117 18.7188 497.219 17.8359 498.469 17.1328C499.734 16.4297 501.078 15.8672 502.5 15.4453C503.922 15.0234 505.383 14.7266 506.883 14.5547C508.398 14.3828 509.867 14.2969 511.289 14.2969C513.555 14.2969 515.664 14.5469 517.617 15.0469C519.586 15.5469 521.289 16.3516 522.727 17.4609C524.164 18.5703 525.289 20.0312 526.102 21.8438C526.93 23.6406 527.344 25.8359 527.344 28.4297H504.445C504.508 30.0547 504.781 31.3984 505.266 32.4609C505.766 33.5078 506.406 34.3438 507.188 34.9688C507.969 35.5781 508.859 36.0078 509.859 36.2578C510.859 36.5078 511.891 36.6328 512.953 36.6328C513.906 36.6328 514.938 36.5781 516.047 36.4688C517.156 36.3594 518.266 36.1562 519.375 35.8594C520.484 35.5469 521.547 35.125 522.562 34.5938C523.578 34.0625 524.461 33.3672 525.211 32.5078L527.602 34.3828C527.211 35.3359 526.664 36.1875 525.961 36.9375C525.258 37.6875 524.453 38.3516 523.547 38.9297C522.641 39.4922 521.656 39.9766 520.594 40.3828C519.547 40.7734 518.469 41.0938 517.359 41.3438C516.25 41.5938 515.141 41.7734 514.031 41.8828C512.922 42.0078 511.859 42.0703 510.844 42.0703C507.984 42.0703 505.398 41.7734 503.086 41.1797C500.789 40.5859 498.82 39.7188 497.18 38.5781C495.555 37.4219 494.297 36.0078 493.406 34.3359C492.531 32.6484 492.094 30.7266 492.094 28.5703ZM516 24.7734C516 23.6172 515.891 22.6484 515.672 21.8672C515.469 21.0703 515.156 20.4297 514.734 19.9453C514.312 19.4609 513.781 19.1172 513.141 18.9141C512.516 18.6953 511.781 18.5859 510.938 18.5859C509.156 18.5859 507.742 19.125 506.695 20.2031C505.648 21.2812 504.961 22.8047 504.633 24.7734H516ZM537.117 35.4375V21.1641L530.977 15.9141L548.297 15.2109V20.1797C548.906 19.2109 549.602 18.3594 550.383 17.625C551.18 16.8906 552.023 16.2812 552.914 15.7969C553.82 15.2969 554.758 14.9219 555.727 14.6719C556.711 14.4219 557.695 14.2969 558.68 14.2969C559.977 14.2969 561.094 14.5156 562.031 14.9531C562.984 15.3906 563.766 16.0078 564.375 16.8047C564.984 17.5859 565.438 18.5156 565.734 19.5938C566.031 20.6719 566.18 21.8438 566.18 23.1094C566.18 23.5156 566.164 23.9297 566.133 24.3516C566.102 24.7734 566.039 25.1875 565.945 25.5938L557.391 26.3672C557.453 26.1172 557.484 25.8828 557.484 25.6641C557.5 25.4297 557.508 25.2031 557.508 24.9844C557.508 24.3438 557.43 23.7578 557.273 23.2266C557.133 22.6953 556.914 22.2422 556.617 21.8672C556.336 21.4766 555.969 21.1797 555.516 20.9766C555.078 20.7578 554.562 20.6484 553.969 20.6484C553.344 20.6484 552.773 20.7734 552.258 21.0234C551.742 21.2734 551.273 21.6094 550.852 22.0312C550.43 22.4531 550.055 22.9453 549.727 23.5078C549.414 24.0547 549.148 24.6328 548.93 25.2422C548.727 25.8359 548.57 26.4375 548.461 27.0469C548.352 27.6562 548.297 28.2266 548.297 28.7578V35.2031L556.453 41.1562H531L537.117 35.4375Z" fill="#1D0D10"/>
</svg>
