<svg width="290" height="55" viewBox="0 0 290 55" fill="none" xmlns="http://www.w3.org/2000/svg">
<path d="M23.3621 41.0439C26.0844 40.8345 26.0849 40.8347 28.8621 40.6211V44.4287H24.6317V46.1211H28.8621V49.5068H23.3621V53.3145C21.6698 54.1606 21.6691 54.1611 20.4002 54.1611C20.3996 53.9017 20.3989 53.6423 20.3983 53.375C20.3899 50.6704 20.3672 47.9662 20.3358 45.2617C20.326 44.253 20.3195 43.2441 20.3172 42.2354C20.3133 40.7837 20.2961 39.3324 20.2762 37.8809C20.2779 37.4312 20.2794 36.9809 20.2811 36.5176C20.234 33.7625 20.2337 33.7623 18.9002 31.4307C18.5574 31.1124 18.2144 30.7937 17.8611 30.4658C19.5535 29.6196 19.5538 29.6191 23.785 29.6191C23.6453 33.3892 23.506 37.1596 23.3621 41.0439ZM34.3631 0C37.4407 0.750694 39.4042 2.53343 41.0809 5.15723C42.6643 7.81586 42.825 10.6294 42.2078 13.6475C41.171 16.764 38.9502 19.2231 36.0555 20.7334C35.051 20.6277 35.0505 20.6278 34.3631 20.3105C34.3632 21.9939 35.0073 23.2735 35.6854 24.7793C35.8054 25.0692 35.926 25.3595 36.0496 25.6582C36.7428 27.1937 37.1383 27.8426 38.6971 28.5469C39.0821 28.6216 39.4674 28.6965 39.8641 28.7734V30.043C39.5429 30.11 39.2214 30.177 38.8904 30.2461C36.3697 30.7278 36.3694 30.7277 34.4695 32.2637C34.295 32.6476 34.1201 33.0321 33.9402 33.4277C33.4556 33.9815 32.9507 34.5186 32.4324 35.041C32.1747 35.301 32.0909 35.3842 31.9432 35.5332C31.6557 35.9115 31.5325 35.9997 30.9783 36.3896H30.1317C29.9921 36.8085 29.8526 37.2277 29.7088 37.6592C29.648 37.6389 29.5871 37.618 29.5262 37.5977C29.1008 38.2697 28.6369 38.7583 28.0164 39.3516C26.3761 36.5144 26.3756 36.5141 26.2176 34.8555C26.9519 33.4604 28.0341 32.8273 29.3104 31.9346C30.679 30.8964 31.2133 29.7598 31.7449 28.165C31.8456 26.7895 31.4443 25.8301 30.9783 24.542V22.8496H30.1317C30.1 23.1657 30.0685 23.4819 30.036 23.8076C29.6228 25.2684 29.0694 25.6652 27.8572 26.5518C27.5225 26.8025 27.1875 27.0531 26.8426 27.3115C24.4247 28.8895 21.482 28.6131 18.7078 28.3496C16.2482 27.5788 14.0833 26.4231 12.783 24.1182V22.4258C12.6434 22.705 12.504 22.9848 12.3602 23.2725L12.0711 22.6943C11.5188 24.9835 11.1313 27.2633 11.5145 29.6191C12.2178 30.74 12.6746 31.3168 13.6297 32.1582C14.0648 32.5524 14.0647 32.5529 14.5086 32.9551C15.3343 33.6887 16.1721 34.4057 17.0145 35.1201C17.1541 35.2597 17.2945 35.3991 17.4383 35.543C17.3806 37.8988 17.0367 40.1147 16.1688 42.3135H15.3221C15.255 42.068 15.1881 41.8222 15.119 41.5693C14.0419 37.9634 12.1099 36.0304 9.3006 33.6455C8.55215 33.0044 8.55191 33.0042 7.70587 32.1582V30.8887C7.30095 30.8191 7.30051 30.819 6.88752 30.748C6.36335 30.6475 6.36274 30.6475 5.82794 30.5449C5.47963 30.4811 5.13115 30.4173 4.77228 30.3516C4.48379 30.2496 4.19451 30.1471 3.89728 30.042L3.47443 28.7734C3.84965 28.5902 4.22554 28.4066 4.61212 28.2178C6.63444 26.9062 7.28711 24.5857 8.12873 22.4258H8.97541C8.6962 22.2862 8.4164 22.1468 8.12873 22.0029C8.21616 21.3559 8.31253 20.8381 8.48127 20.3809L8.12873 20.7334C6.7899 20.9301 6.18432 20.8423 5.03302 20.1123C2.51508 17.8352 0.367499 15.4022 0.00372611 11.8555C-0.0853279 7.65699 1.42386 4.72024 4.32111 1.69238C5.74752 0.575811 6.72769 -0.185437 8.55255 0.422852C7.86567 1.14589 7.15852 1.85127 6.43634 2.53906H5.59064C4.311 5.41833 4.23201 8.78195 5.32599 11.7158C5.92563 12.7336 5.92579 12.7341 6.85919 13.1172C9.34774 13.3143 9.34878 13.3139 11.5145 12.2705C11.3106 10.9967 10.9188 10.3014 10.2186 9.17676C9.30413 7.6516 9.25289 6.43504 9.39826 4.6543C9.67748 4.51469 9.95726 4.37529 10.2449 4.23145C10.306 4.66773 10.3666 5.10421 10.4295 5.55371C10.979 7.47097 12.214 8.24264 13.8641 9.24805C15.3587 9.94756 16.6443 10.0186 18.284 10.1553C19.5004 10.6577 19.5011 10.6579 20.4002 11.4248C20.9553 12.773 20.9552 12.7734 21.2459 13.9629C21.5251 13.5441 21.805 13.1258 22.0926 12.6943C23.741 10.5515 25.513 10.0696 28.0643 9.30078C29.5464 8.79737 30.5734 8.11486 31.824 7.19336H32.6707V4.23145H33.5174C33.7512 6.84999 33.4202 8.11996 31.8231 10.2148C31.3129 10.9884 31.3125 10.9883 31.5037 11.9121C31.7704 12.7469 31.7709 12.7467 32.5389 13.249C33.8806 13.6478 34.7159 13.5079 36.0555 13.1172C37.2444 12.1532 37.6847 11.6163 38.1717 10.1553C38.4079 6.73072 37.8196 3.90047 35.5535 1.24316C35.1625 0.823575 34.7674 0.406876 34.3631 0ZM13.9627 18.6182C14.176 20.4837 14.7926 21.4908 16.0779 22.8496C17.2135 23.5723 17.67 23.6953 19.0399 23.6953C18.4595 22.3482 17.8291 21.592 16.6863 20.6807C15.5663 19.7991 15.5664 19.7987 14.8094 18.6182H13.9627ZM27.5926 18.6182C26.8354 19.7989 26.8349 19.7989 25.7147 20.6807C24.572 21.5919 23.9414 22.3481 23.3611 23.6953C24.7312 23.6953 25.1876 23.5722 26.3231 22.8496C27.6085 21.4907 28.226 20.4838 28.4393 18.6182H27.5926ZM17.0828 20.8057C17.2672 21.0074 17.4788 21.2187 17.868 21.5957C17.8619 21.4777 17.8611 21.3359 17.8611 21.1562C17.6082 21.0429 17.3551 20.9293 17.0945 20.8125C17.0907 20.8104 17.0867 20.8078 17.0828 20.8057Z" fill="#1D0D10"/>
<path d="M52.2503 31.7437L56.9213 22.4414L54.7891 20.0117H66.412L64.617 22.5306L68.8021 31.7239L71.4103 34.2329H60.9973L63.1592 31.7437L62.7328 30.7024H56.1874L55.7213 31.7437L58.5676 34.2329H49.3347L52.2503 31.7437ZM61.8997 28.6297L59.6287 23.0364L57.1196 28.6297H61.8997ZM72.7888 30.1867C73.2913 30.5173 73.8301 30.8247 74.4053 31.109C74.9871 31.3867 75.5888 31.6313 76.2102 31.8429C76.8317 32.0478 77.4664 32.2098 78.1143 32.3288C78.7622 32.4478 79.4102 32.5073 80.0581 32.5073C80.3027 32.5073 80.544 32.4908 80.782 32.4577C81.0267 32.4247 81.2415 32.3751 81.4267 32.309C81.6184 32.2363 81.7705 32.1437 81.8829 32.0313C82.0019 31.9123 82.0614 31.7701 82.0614 31.6049C82.0614 31.466 82.0151 31.3437 81.9225 31.2379C81.8366 31.1255 81.668 31.023 81.4167 30.9305C81.1655 30.8379 80.8118 30.7553 80.3556 30.6826C79.906 30.6098 79.3176 30.5437 78.5904 30.4842C78.1011 30.4445 77.6086 30.395 77.1127 30.3355C76.6168 30.2693 76.1375 30.1801 75.6747 30.0677C75.2185 29.9553 74.7888 29.8098 74.3855 29.6313C73.9888 29.4528 73.6417 29.2346 73.3442 28.9768C73.0533 28.7123 72.8219 28.3983 72.65 28.0347C72.4781 27.671 72.3921 27.2446 72.3921 26.7554C72.3921 26.1207 72.5442 25.562 72.8483 25.0793C73.1524 24.5967 73.5623 24.1934 74.078 23.8695C74.6003 23.5389 75.2053 23.2909 75.8929 23.1257C76.5805 22.9538 77.3077 22.8678 78.0747 22.8678C78.9011 22.8678 79.7176 22.967 80.5242 23.1653C81.3374 23.3571 82.1407 23.6347 82.9341 23.9984L85.5324 22.9273V26.8545C84.9836 26.5306 84.415 26.2463 83.8266 26.0016C83.2448 25.7504 82.663 25.5422 82.0812 25.3769C81.506 25.2116 80.9407 25.0893 80.3854 25.0099C79.8366 24.924 79.3242 24.881 78.8482 24.881C78.5308 24.881 78.2432 24.9041 77.9854 24.9504C77.7276 24.9967 77.5028 25.0595 77.311 25.1389C77.1259 25.2182 76.9805 25.3107 76.8747 25.4165C76.7755 25.5223 76.7259 25.6347 76.7259 25.7537C76.7259 25.8727 76.7689 25.9785 76.8548 26.0711C76.9474 26.1636 77.1259 26.2529 77.3904 26.3388C77.6614 26.4182 78.0416 26.4975 78.5308 26.5768C79.0267 26.6496 79.6746 26.7256 80.4746 26.8049C81.2614 26.8843 82.0151 27.0033 82.7357 27.162C83.463 27.314 84.1043 27.5322 84.6597 27.8165C85.215 28.0942 85.658 28.4578 85.9886 28.9074C86.3191 29.3503 86.4844 29.9057 86.4844 30.5735C86.4844 31.0561 86.3952 31.4925 86.2167 31.8825C86.0448 32.2726 85.8101 32.6164 85.5125 32.9139C85.215 33.2114 84.8679 33.4693 84.4712 33.6875C84.0746 33.899 83.6514 34.0742 83.2018 34.2131C82.7589 34.3519 82.3027 34.4544 81.8333 34.5205C81.3639 34.5866 80.9077 34.6197 80.4647 34.6197C79.592 34.6197 78.7292 34.5106 77.8763 34.2924C77.0234 34.0742 76.1937 33.7536 75.3871 33.3304L72.7888 34.4908V30.1867ZM89.7968 25.2777H88.091V23.7405C88.5604 23.7405 89.0001 23.6744 89.41 23.5422C89.8199 23.4033 90.1968 23.2182 90.5406 22.9868C90.891 22.7554 91.2017 22.4877 91.4728 22.1835C91.7505 21.8728 91.9852 21.5488 92.1769 21.2116C92.3686 20.8679 92.5141 20.5207 92.6133 20.1703C92.719 19.8133 92.7719 19.4695 92.7719 19.139H94.7256V23.2546H99.5949V25.2777H94.7256V29.7305C94.7256 30.3454 94.7983 30.8346 94.9438 31.1983C95.0959 31.5619 95.2876 31.8363 95.519 32.0214C95.757 32.2065 96.0148 32.3255 96.2925 32.3784C96.5768 32.4313 96.8512 32.4577 97.1157 32.4577C97.79 32.4577 98.3222 32.266 98.7123 31.8825C99.109 31.4925 99.3074 30.8974 99.3074 30.0974C99.3074 30.0379 99.3074 29.9751 99.3074 29.909C99.3074 29.8429 99.3007 29.7735 99.2875 29.7008L100.993 30.2065C101.013 30.385 101.023 30.5536 101.023 30.7123C101.023 31.1949 100.947 31.628 100.795 32.0115C100.643 32.3949 100.435 32.7321 100.17 33.023C99.9057 33.3073 99.5916 33.5519 99.228 33.7569C98.871 33.9618 98.4875 34.1271 98.0776 34.2527C97.6677 34.3784 97.2413 34.4709 96.7983 34.5304C96.3553 34.5899 95.9157 34.6197 95.4793 34.6197C94.6132 34.6197 93.8298 34.5337 93.1289 34.3618C92.4281 34.1899 91.8298 33.9156 91.3339 33.5387C90.8447 33.1619 90.4645 32.6759 90.1935 32.0809C89.929 31.4792 89.7968 30.752 89.7968 29.8991V25.2777ZM102.312 31.6743C102.312 31.1454 102.421 30.6892 102.64 30.3057C102.858 29.9156 103.152 29.5851 103.522 29.314C103.892 29.0363 104.325 28.8115 104.821 28.6396C105.317 28.4677 105.843 28.3355 106.398 28.2429C106.954 28.1438 107.522 28.0776 108.104 28.0446C108.692 28.0049 109.264 27.9851 109.82 27.9851C110.13 27.9851 110.458 27.9917 110.801 28.0049C111.152 28.0115 111.502 28.0214 111.853 28.0347C111.839 27.5586 111.796 27.1355 111.724 26.7653C111.658 26.3884 111.542 26.0744 111.377 25.8231C111.218 25.5653 110.993 25.3703 110.702 25.238C110.418 25.0992 110.051 25.0298 109.601 25.0298C109.31 25.0298 109.023 25.0661 108.739 25.1389C108.454 25.2116 108.196 25.3273 107.965 25.486C107.734 25.6446 107.535 25.8496 107.37 26.1008C107.211 26.3454 107.109 26.6463 107.063 27.0033L103.086 26.4578C103.086 26.0083 103.175 25.6083 103.354 25.2579C103.539 24.9008 103.79 24.5901 104.107 24.3256C104.425 24.0546 104.798 23.8265 105.228 23.6414C105.664 23.4562 106.13 23.3075 106.626 23.1951C107.129 23.0827 107.651 23 108.193 22.9472C108.742 22.8943 109.287 22.8678 109.829 22.8678C110.484 22.8678 111.109 22.8976 111.704 22.9571C112.305 23.01 112.864 23.1091 113.38 23.2546C113.896 23.4 114.362 23.5951 114.778 23.8397C115.201 24.0843 115.562 24.3951 115.859 24.7719C116.157 25.1488 116.385 25.5983 116.543 26.1207C116.709 26.643 116.791 27.2512 116.791 27.9454V31.4363C116.791 31.9652 116.92 32.3354 117.178 32.547C117.443 32.7586 117.8 32.8643 118.249 32.8643V34.0048C118.19 34.0643 118.087 34.1304 117.942 34.2032C117.803 34.2693 117.618 34.3321 117.386 34.3916C117.162 34.4577 116.894 34.5106 116.583 34.5503C116.272 34.5965 115.915 34.6197 115.512 34.6197C115.023 34.6197 114.583 34.5932 114.193 34.5403C113.803 34.4941 113.462 34.4081 113.172 34.2825C112.887 34.1635 112.649 33.9982 112.458 33.7866C112.266 33.5751 112.12 33.3073 112.021 32.9833C111.691 33.2742 111.317 33.5222 110.901 33.7271C110.484 33.9321 110.041 34.1007 109.572 34.2329C109.109 34.3651 108.63 34.461 108.134 34.5205C107.644 34.5866 107.162 34.6197 106.686 34.6197C106.368 34.6197 106.041 34.6032 105.704 34.5701C105.367 34.537 105.036 34.4775 104.712 34.3916C104.388 34.3122 104.081 34.2032 103.79 34.0643C103.499 33.9189 103.244 33.7371 103.026 33.5189C102.808 33.3007 102.633 33.0395 102.501 32.7354C102.375 32.4313 102.312 32.0776 102.312 31.6743ZM107.439 31.2379C107.439 31.4164 107.486 31.5784 107.578 31.7239C107.671 31.8693 107.796 31.9916 107.955 32.0908C108.114 32.19 108.299 32.266 108.51 32.3189C108.722 32.3718 108.947 32.3982 109.185 32.3982C109.429 32.3982 109.701 32.3718 109.998 32.3189C110.296 32.2594 110.577 32.1635 110.841 32.0313C111.112 31.8991 111.344 31.7272 111.535 31.5156C111.727 31.2974 111.836 31.033 111.863 30.7222V29.7107C111.77 29.7041 111.681 29.7008 111.595 29.7008C111.515 29.7008 111.439 29.7008 111.367 29.7008C110.659 29.7008 110.058 29.7371 109.562 29.8098C109.066 29.876 108.659 29.9751 108.342 30.1074C108.031 30.2396 107.803 30.4016 107.658 30.5933C107.512 30.785 107.439 30.9999 107.439 31.2379ZM121.958 31.8131V25.7736L119.36 23.5521L126.689 23.2546V25.357C126.947 24.9471 127.241 24.5868 127.571 24.2761C127.909 23.9653 128.266 23.7075 128.642 23.5025C129.026 23.2909 129.423 23.1323 129.832 23.0265C130.249 22.9207 130.665 22.8678 131.082 22.8678C131.631 22.8678 132.103 22.9604 132.5 23.1455C132.903 23.3306 133.234 23.5918 133.492 23.929C133.75 24.2595 133.941 24.6529 134.067 25.1091C134.193 25.5653 134.256 26.0611 134.256 26.5967C134.256 26.7686 134.249 26.9438 134.236 27.1223C134.222 27.3008 134.196 27.476 134.156 27.6479L130.537 27.9752C130.563 27.8694 130.576 27.7702 130.576 27.6777C130.583 27.5785 130.586 27.4826 130.586 27.3901C130.586 27.119 130.553 26.8711 130.487 26.6463C130.427 26.4215 130.335 26.2297 130.209 26.0711C130.09 25.9058 129.935 25.7802 129.743 25.6942C129.558 25.6017 129.34 25.5554 129.089 25.5554C128.824 25.5554 128.583 25.6083 128.365 25.714C128.147 25.8198 127.948 25.962 127.77 26.1405C127.591 26.319 127.432 26.5273 127.294 26.7653C127.161 26.9967 127.049 27.2413 126.956 27.4991C126.871 27.7504 126.804 28.0049 126.758 28.2628C126.712 28.5206 126.689 28.7619 126.689 28.9867V31.7139L130.14 34.2329H119.37L121.958 31.8131ZM135.336 28.7487C135.336 27.7504 135.538 26.8843 135.941 26.1504C136.351 25.4099 136.92 24.7984 137.647 24.3157C138.374 23.8265 139.237 23.4628 140.236 23.2248C141.234 22.9868 142.325 22.8678 143.508 22.8678C144.692 22.8678 145.783 22.9868 146.781 23.2248C147.779 23.4628 148.642 23.8265 149.369 24.3157C150.097 24.7984 150.662 25.4099 151.065 26.1504C151.475 26.8843 151.68 27.7504 151.68 28.7487C151.68 29.7867 151.475 30.6759 151.065 31.4164C150.662 32.1569 150.097 32.7652 149.369 33.2412C148.642 33.7172 147.779 34.0643 146.781 34.2825C145.783 34.5073 144.692 34.6197 143.508 34.6197C142.325 34.6197 141.234 34.5073 140.236 34.2825C139.237 34.0643 138.374 33.7172 137.647 33.2412C136.92 32.7652 136.351 32.1569 135.941 31.4164C135.538 30.6759 135.336 29.7867 135.336 28.7487ZM140.553 28.7487C140.553 29.357 140.629 29.909 140.781 30.4049C140.94 30.9007 141.151 31.3239 141.416 31.6743C141.687 32.0181 142.001 32.2858 142.358 32.4776C142.721 32.6627 143.105 32.7552 143.508 32.7552C143.912 32.7552 144.292 32.6627 144.649 32.4776C145.012 32.2858 145.326 32.0181 145.591 31.6743C145.862 31.3239 146.073 30.9007 146.226 30.4049C146.384 29.909 146.464 29.357 146.464 28.7487C146.464 28.1338 146.384 27.5752 146.226 27.0727C146.073 26.5702 145.862 26.1405 145.591 25.7835C145.326 25.4265 145.012 25.1488 144.649 24.9504C144.292 24.7521 143.912 24.6529 143.508 24.6529C143.105 24.6529 142.721 24.7521 142.358 24.9504C142.001 25.1488 141.687 25.4265 141.416 25.7835C141.151 26.1405 140.94 26.5702 140.781 27.0727C140.629 27.5752 140.553 28.1338 140.553 28.7487ZM154.973 25.2777H153.267V23.7405C153.736 23.7405 154.176 23.6744 154.586 23.5422C154.996 23.4033 155.373 23.2182 155.716 22.9868C156.067 22.7554 156.377 22.4877 156.649 22.1835C156.926 21.8728 157.161 21.5488 157.353 21.2116C157.544 20.8679 157.69 20.5207 157.789 20.1703C157.895 19.8133 157.948 19.4695 157.948 19.139H159.901V23.2546H164.771V25.2777H159.901V29.7305C159.901 30.3454 159.974 30.8346 160.12 31.1983C160.272 31.5619 160.463 31.8363 160.695 32.0214C160.933 32.2065 161.191 32.3255 161.468 32.3784C161.753 32.4313 162.027 32.4577 162.291 32.4577C162.966 32.4577 163.498 32.266 163.888 31.8825C164.285 31.4925 164.483 30.8974 164.483 30.0974C164.483 30.0379 164.483 29.9751 164.483 29.909C164.483 29.8429 164.476 29.7735 164.463 29.7008L166.169 30.2065C166.189 30.385 166.199 30.5536 166.199 30.7123C166.199 31.1949 166.123 31.628 165.971 32.0115C165.819 32.3949 165.61 32.7321 165.346 33.023C165.081 33.3073 164.767 33.5519 164.404 33.7569C164.047 33.9618 163.663 34.1271 163.253 34.2527C162.843 34.3784 162.417 34.4709 161.974 34.5304C161.531 34.5899 161.091 34.6197 160.655 34.6197C159.789 34.6197 159.005 34.5337 158.305 34.3618C157.604 34.1899 157.006 33.9156 156.51 33.5387C156.02 33.1619 155.64 32.6759 155.369 32.0809C155.105 31.4792 154.973 30.752 154.973 29.8991V25.2777ZM169.64 31.8131V21.0431L167.042 18.8216L174.371 18.5241V25.2975C174.866 24.5174 175.501 23.919 176.275 23.5025C177.055 23.0794 177.937 22.8678 178.923 22.8678C179.689 22.8678 180.37 22.9868 180.965 23.2248C181.567 23.4562 182.07 23.8066 182.473 24.2761C182.883 24.7389 183.194 25.3207 183.405 26.0215C183.617 26.7157 183.722 27.5223 183.722 28.4413V31.8131L186.41 34.2329H177.167L178.992 31.8131V28.6495C178.992 28.2264 178.952 27.8264 178.873 27.4496C178.794 27.0727 178.668 26.7421 178.496 26.4578C178.331 26.1735 178.116 25.9488 177.851 25.7835C177.587 25.6182 177.27 25.5355 176.899 25.5355C176.529 25.5355 176.189 25.6182 175.878 25.7835C175.567 25.9421 175.299 26.1769 175.075 26.4876C174.85 26.7917 174.675 27.1686 174.549 27.6181C174.43 28.0611 174.371 28.5702 174.371 29.1454V31.8131L176.195 34.2329H166.952L169.64 31.8131ZM187.263 27.1223C187.263 26.243 187.392 25.4463 187.65 24.7322C187.907 24.0182 188.264 23.3835 188.721 22.8281C189.177 22.2728 189.716 21.7968 190.337 21.4001C190.959 20.9968 191.633 20.6662 192.36 20.4084C193.094 20.1439 193.864 19.9489 194.671 19.8232C195.478 19.6976 196.294 19.6348 197.121 19.6348C197.729 19.6348 198.304 19.6712 198.846 19.7439C199.388 19.8166 199.894 19.9158 200.363 20.0414C200.839 20.1604 201.276 20.2993 201.673 20.4579C202.069 20.6166 202.426 20.7819 202.744 20.9538L203.468 20.0117H205.54V25.0496L202.912 25.5455C202.754 25.0099 202.519 24.5108 202.208 24.048C201.897 23.5852 201.524 23.1852 201.087 22.848C200.651 22.5108 200.155 22.2463 199.6 22.0546C199.051 21.8563 198.453 21.7571 197.805 21.7571C196.972 21.7571 196.258 21.9058 195.663 22.2034C195.068 22.4943 194.578 22.8877 194.195 23.3835C193.818 23.8728 193.54 24.4413 193.362 25.0893C193.183 25.7372 193.094 26.4149 193.094 27.1223C193.094 27.9884 193.22 28.7553 193.471 29.4231C193.729 30.0908 194.086 30.6528 194.542 31.109C194.998 31.5586 195.537 31.8991 196.159 32.1305C196.787 32.3619 197.474 32.4776 198.221 32.4776C198.803 32.4776 199.352 32.4048 199.868 32.2594C200.383 32.1073 200.836 31.8792 201.226 31.5751C201.623 31.2644 201.944 30.8743 202.188 30.4049C202.439 29.9355 202.592 29.3801 202.644 28.7388H205.679C205.679 29.3669 205.577 29.9487 205.372 30.4842C205.173 31.0197 204.889 31.5057 204.519 31.942C204.155 32.3784 203.715 32.7652 203.2 33.1024C202.684 33.4329 202.109 33.7106 201.474 33.9354C200.839 34.1602 200.155 34.3288 199.421 34.4412C198.694 34.5602 197.93 34.6197 197.13 34.6197C196.377 34.6197 195.607 34.5668 194.82 34.461C194.04 34.3618 193.283 34.1965 192.549 33.9651C191.821 33.7337 191.137 33.4296 190.496 33.0528C189.855 32.6693 189.293 32.1999 188.81 31.6445C188.334 31.0892 187.957 30.4379 187.679 29.6908C187.402 28.9437 187.263 28.0876 187.263 27.1223ZM211.917 21.9852C211.56 21.9852 211.223 21.9191 210.905 21.7868C210.595 21.648 210.324 21.4629 210.092 21.2315C209.861 21.0001 209.676 20.729 209.537 20.4183C209.405 20.1009 209.339 19.7637 209.339 19.4067C209.339 19.0497 209.405 18.7158 209.537 18.4051C209.676 18.0877 209.861 17.8134 210.092 17.582C210.324 17.3439 210.595 17.1588 210.905 17.0266C211.223 16.8878 211.56 16.8183 211.917 16.8183C212.274 16.8183 212.608 16.8878 212.919 17.0266C213.236 17.1588 213.51 17.3439 213.742 17.582C213.98 17.8134 214.165 18.0877 214.297 18.4051C214.436 18.7158 214.505 19.0497 214.505 19.4067C214.505 19.7637 214.436 20.1009 214.297 20.4183C214.165 20.729 213.98 21.0001 213.742 21.2315C213.51 21.4629 213.236 21.648 212.919 21.7868C212.608 21.9191 212.274 21.9852 211.917 21.9852ZM209.824 31.8131V25.7736L207.226 23.5521L214.456 23.2546V31.8131L217.143 34.2329H207.137L209.824 31.8131ZM220.297 25.9719L217.609 23.5521L225.028 23.2546V25.0893C225.497 24.3356 226.112 23.7769 226.872 23.4133C227.639 23.0496 228.505 22.8678 229.47 22.8678C230.495 22.8678 231.398 23.0265 232.178 23.3438C232.965 23.6546 233.622 24.0843 234.151 24.6331C234.68 25.1752 235.08 25.8099 235.351 26.5372C235.622 27.2644 235.758 28.0446 235.758 28.8776C235.758 29.6181 235.639 30.3355 235.401 31.0297C235.163 31.7173 234.793 32.3288 234.29 32.8643C233.788 33.3933 233.143 33.8197 232.356 34.1437C231.576 34.461 230.637 34.6197 229.54 34.6197C228.535 34.6197 227.649 34.4478 226.882 34.104C226.115 33.7536 225.497 33.2114 225.028 32.4776V36.137L228.707 38.5568H217.609L220.297 36.137V25.9719ZM225.028 28.7487C225.028 29.3437 225.107 29.8495 225.266 30.266C225.431 30.6826 225.642 31.023 225.9 31.2875C226.165 31.5454 226.459 31.7338 226.783 31.8528C227.113 31.9718 227.447 32.0313 227.784 32.0313C228.188 32.0313 228.558 31.9619 228.895 31.823C229.232 31.6842 229.523 31.4792 229.768 31.2082C230.013 30.9305 230.201 30.5867 230.333 30.1768C230.472 29.7669 230.541 29.2908 230.541 28.7487C230.541 28.2066 230.472 27.7272 230.333 27.3107C230.201 26.8876 230.013 26.5339 229.768 26.2496C229.523 25.9587 229.232 25.7405 228.895 25.595C228.558 25.4496 228.188 25.3769 227.784 25.3769C227.427 25.3769 227.084 25.4397 226.753 25.5653C226.423 25.6843 226.128 25.8793 225.87 26.1504C225.619 26.4149 225.414 26.762 225.256 27.1917C225.104 27.6148 225.028 28.1338 225.028 28.7487ZM239.834 31.8131V21.0431L237.236 18.8216L244.564 18.5241V25.2975C245.06 24.5174 245.695 23.919 246.468 23.5025C247.249 23.0794 248.131 22.8678 249.116 22.8678C249.883 22.8678 250.564 22.9868 251.159 23.2248C251.761 23.4562 252.263 23.8066 252.667 24.2761C253.077 24.7389 253.387 25.3207 253.599 26.0215C253.81 26.7157 253.916 27.5223 253.916 28.4413V31.8131L256.604 34.2329H247.361L249.186 31.8131V28.6495C249.186 28.2264 249.146 27.8264 249.067 27.4496C248.987 27.0727 248.862 26.7421 248.69 26.4578C248.525 26.1735 248.31 25.9488 248.045 25.7835C247.781 25.6182 247.463 25.5355 247.093 25.5355C246.723 25.5355 246.383 25.6182 246.072 25.7835C245.761 25.9421 245.493 26.1769 245.268 26.4876C245.044 26.7917 244.868 27.1686 244.743 27.6181C244.624 28.0611 244.564 28.5702 244.564 29.1454V31.8131L246.389 34.2329H237.146L239.834 31.8131ZM257.556 28.9074C257.556 28.1008 257.672 27.3901 257.903 26.7752C258.141 26.1603 258.458 25.6314 258.855 25.1884C259.258 24.7389 259.724 24.3653 260.253 24.0678C260.789 23.7703 261.357 23.5323 261.959 23.3538C262.561 23.1752 263.179 23.0496 263.814 22.9769C264.455 22.9042 265.076 22.8678 265.678 22.8678C266.637 22.8678 267.529 22.9736 268.356 23.1852C269.189 23.3967 269.909 23.7372 270.518 24.2066C271.126 24.676 271.602 25.2942 271.946 26.0611C272.296 26.8215 272.471 27.7504 272.471 28.8479H262.782C262.809 29.5355 262.924 30.1041 263.129 30.5536C263.341 30.9966 263.612 31.3503 263.943 31.6148C264.273 31.8726 264.65 32.0544 265.073 32.1602C265.496 32.266 265.933 32.3189 266.382 32.3189C266.785 32.3189 267.222 32.2958 267.691 32.2495C268.161 32.2032 268.63 32.1172 269.099 31.9916C269.569 31.8594 270.018 31.6809 270.448 31.4561C270.878 31.2313 271.251 30.9371 271.569 30.5735L272.58 31.3668C272.415 31.7701 272.184 32.1305 271.886 32.4478C271.589 32.7652 271.248 33.0462 270.865 33.2908C270.481 33.5288 270.065 33.7337 269.615 33.9056C269.172 34.0709 268.716 34.2065 268.247 34.3122C267.777 34.418 267.308 34.4941 266.838 34.5403C266.369 34.5932 265.919 34.6197 265.49 34.6197C264.28 34.6197 263.186 34.4941 262.207 34.2428C261.235 33.9916 260.402 33.6247 259.708 33.142C259.02 32.6528 258.488 32.0544 258.111 31.347C257.741 30.633 257.556 29.8198 257.556 28.9074ZM267.671 27.3008C267.671 26.8116 267.625 26.4016 267.533 26.0711C267.447 25.7339 267.314 25.4628 267.136 25.2579C266.957 25.0529 266.733 24.9075 266.461 24.8215C266.197 24.7289 265.886 24.6827 265.529 24.6827C264.776 24.6827 264.177 24.9108 263.734 25.3669C263.291 25.8231 263 26.4678 262.862 27.3008H267.671ZM276.607 31.8131V25.7736L274.008 23.5521L281.337 23.2546V25.357C281.595 24.9471 281.889 24.5868 282.22 24.2761C282.557 23.9653 282.914 23.7075 283.291 23.5025C283.674 23.2909 284.071 23.1323 284.481 23.0265C284.898 22.9207 285.314 22.8678 285.731 22.8678C286.279 22.8678 286.752 22.9604 287.149 23.1455C287.552 23.3306 287.883 23.5918 288.14 23.929C288.398 24.2595 288.59 24.6529 288.716 25.1091C288.841 25.5653 288.904 26.0611 288.904 26.5967C288.904 26.7686 288.897 26.9438 288.884 27.1223C288.871 27.3008 288.845 27.476 288.805 27.6479L285.185 27.9752C285.212 27.8694 285.225 27.7702 285.225 27.6777C285.231 27.5785 285.235 27.4826 285.235 27.3901C285.235 27.119 285.202 26.8711 285.136 26.6463C285.076 26.4215 284.983 26.2297 284.858 26.0711C284.739 25.9058 284.584 25.7802 284.392 25.6942C284.207 25.6017 283.988 25.5554 283.737 25.5554C283.473 25.5554 283.231 25.6083 283.013 25.714C282.795 25.8198 282.597 25.962 282.418 26.1405C282.24 26.319 282.081 26.5273 281.942 26.7653C281.81 26.9967 281.698 27.2413 281.605 27.4991C281.519 27.7504 281.453 28.0049 281.407 28.2628C281.36 28.5206 281.337 28.7619 281.337 28.9867V31.7139L284.788 34.2329H274.018L276.607 31.8131Z" fill="#1D0D10"/>
</svg>
